<?xml version="1.0" standalone="no"?>
<!DOCTYPE svg PUBLIC "-//W3C//DTD SVG 20010904//EN"
 "http://www.w3.org/TR/2001/REC-SVG-20010904/DTD/svg10.dtd">
<svg version="1.0" xmlns="http://www.w3.org/2000/svg"
 width="800.000000pt" height="800.000000pt" viewBox="0 0 800.000000 800.000000"
 preserveAspectRatio="xMidYMid meet">
<metadata>
Created by potrace 1.11, written by Peter Selinger 2001-2013
</metadata>
<g transform="translate(0.000000,800.000000) scale(0.100000,-0.100000)"
fill="#000000" stroke="none">
<path d="M3690 7990 c-487 -42 -924 -162 -1355 -369 -887 -428 -1585 -1187
-1958 -2131 -133 -335 -216 -673 -264 -1070 -24 -204 -24 -685 1 -895 80 -681
299 -1287 661 -1830 563 -843 1370 -1408 2360 -1652 l150 -37 659 -4 c721 -3
695 -5 951 59 1304 327 2354 1327 2778 2646 81 251 138 516 174 803 25 206 25
724 0 930 -137 1104 -657 2054 -1493 2724 -560 448 -1221 723 -1949 812 -154
18 -567 26 -715 14z m710 -265 c1180 -139 2227 -855 2803 -1916 26 -47 47 -89
47 -93 0 -19 -231 0 -659 54 -442 56 -488 60 -680 60 -184 0 -243 5 -561 45
-341 43 -365 45 -623 45 l-268 0 -679 85 c-553 69 -704 85 -815 85 -107 0
-240 13 -615 60 -443 56 -493 60 -681 60 -157 0 -247 6 -403 25 -111 14 -204
27 -208 28 -4 1 34 54 84 117 114 144 418 448 563 564 478 380 1031 635 1610
741 129 23 340 51 445 59 113 8 510 -4 640 -19z m-2642 -2339 c75 -38 137 -98
169 -165 24 -49 28 -68 28 -146 0 -78 -4 -97 -28 -147 -36 -74 -119 -150 -195
-178 -77 -29 -213 -25 -284 9 -156 75 -239 248 -194 403 31 109 103 188 212
234 51 21 71 24 149 21 74 -3 99 -8 143 -31z m813 1 c73 -35 136 -99 171 -174
52 -110 38 -241 -37 -343 -66 -90 -171 -141 -290 -141 -190 0 -332 123 -360
312 -22 144 94 316 244 364 74 24 205 15 272 -18z m821 -5 c77 -38 128 -91
166 -172 38 -78 37 -191 0 -271 -35 -75 -85 -129 -157 -167 -180 -97 -404 -28
-499 153 -24 44 -27 61 -27 150 0 114 14 152 87 231 79 86 151 115 278 111 74
-2 95 -7 152 -35z m801 8 c70 -33 142 -103 174 -168 24 -50 28 -69 28 -147 0
-78 -4 -97 -28 -147 -112 -227 -423 -270 -597 -82 -64 70 -84 123 -84 229 -1
79 2 96 27 142 49 94 115 152 215 190 58 21 205 12 265 -17z m810 -5 c68 -34
140 -107 170 -173 17 -37 22 -66 22 -137 0 -78 -4 -97 -28 -147 -112 -227
-423 -270 -597 -82 -65 71 -84 123 -84 229 0 78 3 97 27 142 36 69 80 118 134
150 78 45 112 53 208 50 75 -3 100 -8 148 -32z m1922 -204 c117 -47 205 -165
205 -276 0 -111 -88 -229 -205 -276 -59 -23 -65 -24 -456 -27 l-395 -3 -424
-727 c-474 -811 -470 -806 -616 -879 l-78 -38 -1300 -3 c-1286 -2 -1302 -2
-1368 18 -184 56 -283 241 -224 418 23 69 100 153 174 189 l57 28 1269 5 1269
5 414 710 c273 468 428 725 456 753 49 50 111 89 182 114 45 16 93 18 515 15
l465 -2 60 -24z m-4623 -674 c207 -101 263 -369 112 -536 -124 -138 -334 -161
-486 -52 -130 93 -180 268 -118 409 40 91 100 147 199 189 48 20 69 23 147 20
74 -2 100 -8 146 -30z m789 10 c143 -59 221 -173 221 -324 0 -59 -5 -83 -29
-135 -36 -76 -99 -139 -173 -176 -49 -24 -67 -27 -155 -27 -91 0 -105 3 -158
29 -65 33 -133 101 -169 167 -20 38 -23 58 -23 144 0 86 3 106 24 145 46 87
112 146 199 181 70 27 191 25 263 -4z m847 -16 c74 -40 125 -93 161 -170 37
-79 37 -191 -1 -273 -34 -72 -103 -142 -176 -176 -49 -23 -70 -27 -152 -27
-88 0 -101 3 -162 33 -74 36 -132 95 -169 170 -19 39 -24 63 -24 137 0 106 19
157 85 229 83 89 153 117 285 113 80 -3 97 -7 153 -36z m804 6 c74 -36 150
-119 178 -195 18 -46 21 -72 18 -133 -8 -135 -79 -238 -206 -297 -49 -23 -70
-27 -152 -27 -82 0 -103 4 -152 27 -73 34 -137 98 -174 174 -25 50 -29 71 -29
139 1 65 6 91 26 135 33 70 79 123 136 157 78 45 112 53 209 50 74 -2 100 -8
146 -30z m-1899 -1792 c288 -75 437 -379 313 -640 -67 -142 -199 -239 -363
-267 -277 -47 -553 180 -553 454 0 207 148 398 351 452 71 19 181 20 252 1z
m1827 -6 c75 -11 174 -55 233 -101 102 -81 168 -218 169 -350 1 -266 -206
-468 -477 -468 -194 0 -363 106 -441 275 -125 273 54 593 361 644 71 12 82 12
155 0z"/>
</g>
</svg>
