<?xml version="1.0" encoding="utf-8"?>
<!-- Generator: Adobe Illustrator 19.2.1, SVG Export Plug-In . SVG Version: 6.00 Build 0)  -->
<svg version="1.1" id="layer" xmlns="http://www.w3.org/2000/svg" xmlns:xlink="http://www.w3.org/1999/xlink" x="0px" y="0px"
	 viewBox="0 0 652 652" style="enable-background:new 0 0 652 652;" xml:space="preserve">
<style type="text/css">
	.st0{fill:#FFFFFF;}
	.st1{fill:#0A0B09;}
	.st2{fill:#D50172;}
</style>
<g id="Page-1">
	<g id="Logo-iDeal" transform="translate(-30.000000, -30.000000)">
		<g transform="translate(30.000000, 30.000000)">
			<polygon id="Path-2" class="st0" points="44.8,87.3 44.8,562.8 374.7,562.8 484.6,533 559.5,468.1 596.1,366 596.1,248.1
				541.3,153.4 445.8,99.6 353.8,91.9 			"/>
			<path id="Fill-4" class="st1" d="M54.5,95.2v453h275.2c166.2,0,256.6-77.4,256.6-227.1c0-153.8-98-225.9-256.6-225.9H54.5z
				 M329.7,71.7c243.7,0,280.1,156.3,280.1,249.4c0,161.6-99.5,250.6-280.1,250.6c0,0-292.8,0-298.7,0c0-5.9,0-494.1,0-500
				C36.9,71.7,329.7,71.7,329.7,71.7z"/>
			<polygon id="Fill-5" class="st1" points="92.4,512.2 180.5,512.2 180.5,355.4 92.4,355.4 			"/>
			<path id="Fill-6" class="st1" d="M191.1,276.4c0,30.2-24.5,54.8-54.8,54.8c-30.2,0-54.8-24.5-54.8-54.8
				c0-30.2,24.5-54.8,54.8-54.8C166.6,221.7,191.1,246.2,191.1,276.4"/>
			<path id="Fill-7" class="st2" d="M224.3,250.9c0,14.2,0,37,0,51.1c7.8,0,15.7,0,15.7,0c10.9,0,20.9-3.1,20.9-26
				c0-22.3-11.2-25.2-20.9-25.2C240,250.9,232.1,250.9,224.3,250.9z M486,225.5h25.4c0,0,0,57.9,0,76.5c5.6,0,21.1,0,37.6,0
				c-10.3-138.9-119.6-168.9-218.8-168.9H224.3v92.4H240c28.6,0,46.3,19.4,46.3,50.5c0,32.1-17.3,51.3-46.3,51.3h-15.7v184.9h105.8
				c161.4,0,217.6-75,219.5-184.9H486V225.5z M415.3,282.4h18.4l-8.4-28.8h-1.5L415.3,282.4z M375.7,327.4l30.7-101.9h36.1
				l30.7,101.9h-26.4l-5.8-19.7h-33.2l-5.8,19.7H375.7z M363.5,302v25.4h-62.8V225.5h60.8v25.4c0,0-21.6,0-35.4,0
				c0,3.5,0,7.5,0,11.8h33.5v25.4h-33.5c0,5.1,0,9.9,0,14C340.3,302,363.5,302,363.5,302z"/>
		</g>
	</g>
</g>
</svg>
