<svg width="16" height="18" xmlns="http://www.w3.org/2000/svg"><path d="M7.771 7.938c2.195 0 3.932-1.8 3.932-3.969C11.703 1.754 9.92 0 7.77 0 5.577 0 3.84 1.8 3.84 3.97c0 2.168 1.737 3.968 3.931 3.968zm0-6.415c1.326 0 2.423 1.108 2.423 2.446 0 1.339-1.097 2.446-2.423 2.446-1.325 0-2.422-1.107-2.422-2.446 0-1.338 1.097-2.446 2.422-2.446zM1.51 18L0 17.815C.594 12.323 3.291 9.37 7.817 9.37c4.48 0 7.177 2.908 7.817 8.446L14.126 18c-.503-4.708-2.652-7.062-6.263-7.062-3.749 0-5.852 2.4-6.354 7.062z" fill="#303030" fill-rule="nonzero"/></svg>
